# xmcd CD database file
#
# Track frame offsets:
#	150
#	18300
#	44632
#	62135
#	77442
#	104807
#	128655
#	146480
#
# Disc length: 2294 seconds
#
# Revision: 0
# Processed by: cddbd v1.5.1PL0 Copyright (c) Steve Scherf et al.
# Submitted via: CDex 1.51
#
DISCID=6b08f408
DTITLE=Ronnie Brandt - Rudy's Thread
DYEAR=1997
DGENRE=Country
TTITLE0=Miles to Go
TTITLE1=Something Keeps Calling My Name
TTITLE2=I Can't Help Myself
TTITLE3=Love So Real
TTITLE4=Her Heart Wasn't In It
TTITLE5=Highway Of Stone
TTITLE6=Try As We May
TTITLE7=Lights Of The City (Till I Met You)
EXTD=YEAR: 1997
EXTT0=
EXTT1=
EXTT2=
EXTT3=
EXTT4=
EXTT5=
EXTT6=
EXTT7=
PLAYORDER=
